<svg viewBox="0 0 469.3375 96.2099" width="488px" height="100" xmlns="http://www.w3.org/2000/svg" xmlns:xlink="http://www.w3.org/1999/xlink" preserveAspectRatio="none"><defs></defs><style>.aD6z1nYkhcolor {fill:#663399;fill-opacity:1;}.adAwzw15ev0filter-floo {flood-color:#663399;flood-opacity:0.5;}.aLgOaV3zRcolors-0 {fill:#663399;fill-opacity:1;}.aLgOaV3zRcolors-1 {fill:#D3A9FF;fill-opacity:1;}</style><defs>
      <filter x="-1000" y="-1000" width="2000" height="2000" id="dAwzw15ev" filterUnits="userSpaceOnUse" primitiveUnits="userSpaceOnUse" color-interpolation-filters="sRGB">
        <feMerge><feMergeNode in="SourceGraphic"></feMergeNode></feMerge>
      </filter></defs><g opacity="1" transform="rotate(0 117.8894 16.72210000000001)">
<svg width="351.4481" height="62.7657" x="117.8894" y="16.72210000000001" version="1.1" preserveAspectRatio="none" viewBox="2.9883 -30.2734 220.8008 39.433499999999995">
  <g transform="matrix(1 0 0 1 0 0)" class="aD6z1nYkhcolor"><path d="M8.07-28.01L8.07 0L2.99 0L2.99-28.01L8.07-28.01Z M36.84-11.72L36.84 0L31.76 0L31.76-11.72Q31.76-12.71 31.42-13.51Q31.07-14.30 30.49-14.86Q29.90-15.43 29.11-15.73Q28.32-16.04 27.40-16.04L27.40-16.04L18.52-16.04L18.52 0L13.44 0L13.44-18.59Q13.44-19.12 13.63-19.58Q13.83-20.04 14.18-20.38Q14.53-20.72 15-20.92Q15.47-21.11 16.00-21.11L16.00-21.11L27.44-21.11Q28.40-21.11 29.46-20.90Q30.53-20.68 31.57-20.21Q32.62-19.73 33.56-18.99Q34.51-18.26 35.24-17.22Q35.98-16.17 36.41-14.80Q36.84-13.44 36.84-11.72L36.84-11.72Z M59.98-21.11L59.98-16.04L48.50-16.04L48.50-21.11L59.98-21.11ZM59.98-30.27L59.98-25.20L48.54-25.20Q47.50-25.20 46.97-24.68Q46.45-24.16 46.45-23.16L46.45-23.16L46.45 0L41.37 0L41.37-23.16Q41.37-24.47 41.70-25.51Q42.03-26.54 42.59-27.33Q43.14-28.13 43.87-28.68Q44.59-29.24 45.38-29.59Q46.17-29.94 46.97-30.11Q47.77-30.27 48.50-30.27L48.50-30.27L59.98-30.27Z M81.66-21.11L81.66-16.04L70.23-16.04Q69.20-16.04 68.67-15.52Q68.14-15 68.14-14.00L68.14-14.00L68.14 0L63.07 0L63.07-14.00Q63.07-15.31 63.40-16.35Q63.73-17.38 64.29-18.17Q64.84-18.96 65.57-19.52Q66.29-20.08 67.08-20.43Q67.87-20.78 68.68-20.95Q69.49-21.11 70.20-21.11L70.20-21.11L81.66-21.11Z M105.16-14.12L105.16-6.99Q105.16-5.94 104.79-4.72Q104.41-3.50 103.58-2.45Q102.75-1.41 101.42-0.70Q100.08 0 98.16 0L98.16 0L89.00 0Q87.95 0 86.73-0.37Q85.51-0.74 84.46-1.57Q83.42-2.40 82.71-3.74Q82.01-5.08 82.01-6.99L82.01-6.99Q82.01-8.05 82.38-9.28Q82.75-10.51 83.58-11.55Q84.41-12.60 85.75-13.30Q87.09-14.00 89.00-14.00L89.00-14.00L98.16-14.00L98.16-9.16L89.00-9.16Q87.97-9.16 87.40-8.53Q86.84-7.89 86.84-6.95L86.84-6.95Q86.84-5.96 87.49-5.40Q88.14-4.84 89.04-4.84L89.04-4.84L98.16-4.84Q99.20-4.84 99.77-5.47Q100.33-6.09 100.33-7.03L100.33-7.03L100.33-14.12Q100.33-15.12 99.72-15.70Q99.10-16.29 98.16-16.29L98.16-16.29L87.01-16.29L87.01-21.11L98.16-21.11Q99.22-21.11 100.44-20.74Q101.66-20.37 102.71-19.54Q103.75-18.71 104.45-17.37Q105.16-16.04 105.16-14.12L105.16-14.12Z M135.78-5.08L135.78 0L112.62 0Q112.07 0 111.60-0.20Q111.13-0.39 110.79-0.73Q110.45-1.07 110.25-1.54Q110.06-2.01 110.06-2.56L110.06-2.56L110.06-28.01L115.14-28.01L115.14-5.08L135.78-5.08Z M144.10-30.04L144.10-25.45L139.02-25.45L139.02-30.04L144.10-30.04ZM144.10-21.11L144.10 0L139.02 0L139.02-21.11L144.10-21.11Z M171.93-14.00L171.93 2.03Q171.93 3.34 171.60 4.38Q171.27 5.43 170.72 6.22Q170.18 7.01 169.45 7.57Q168.73 8.13 167.94 8.48Q167.15 8.83 166.34 8.99Q165.53 9.16 164.80 9.16L164.80 9.16L155.64 9.16L155.64 4.08L164.80 4.08Q165.84 4.08 166.35 3.55Q166.86 3.03 166.86 2.03L166.86 2.03L166.86-14.00Q166.86-15 166.35-15.52Q165.84-16.04 164.80-16.04L164.80-16.04L155.64-16.04Q154.71-16.04 154.16-15.46Q153.61-14.88 153.61-14.00L153.61-14.00L153.61-7.13Q153.61-6.13 154.14-5.61Q154.67-5.08 155.68-5.08L155.68-5.08L164.80-5.08L164.80 0L155.64 0Q154.92 0 154.12-0.17Q153.32-0.33 152.53-0.68Q151.74-1.04 151.02-1.59Q150.29-2.15 149.75-2.94Q149.20-3.73 148.87-4.78Q148.54-5.82 148.54-7.13L148.54-7.13L148.54-14.00Q148.54-14.73 148.70-15.53Q148.87-16.33 149.22-17.12Q149.57-17.91 150.13-18.63Q150.68-19.36 151.47-19.90Q152.27-20.45 153.30-20.78Q154.34-21.11 155.64-21.11L155.64-21.11L164.80-21.11Q165.53-21.11 166.34-20.95Q167.15-20.78 167.94-20.43Q168.73-20.08 169.45-19.52Q170.18-18.96 170.72-18.17Q171.27-17.38 171.60-16.35Q171.93-15.31 171.93-14.00L171.93-14.00Z M200.06-14.00L200.06 0L194.98 0L194.98-14.00Q194.98-15 194.47-15.52Q193.96-16.04 192.95-16.04L192.95-16.04L183.79-16.04L183.79-21.11L192.95-21.11Q193.67-21.11 194.47-20.95Q195.27-20.78 196.06-20.43Q196.86-20.08 197.58-19.52Q198.30-18.96 198.85-18.17Q199.39-17.38 199.73-16.35Q200.06-15.31 200.06-14.00L200.06-14.00ZM181.74-30.04L181.74 0L176.66 0L176.66-30.04L181.74-30.04Z M223.79-21.11L223.79-16.04L214.92-16.04L214.92 0L209.79 0L209.79-16.04L203.18-16.04L203.18-21.11L209.79-21.11L209.79-28.01L214.92-28.01L214.92-21.11L223.79-21.11Z"></path></g>
</svg>
</g><g filter="url(#dAwzw15ev)"><g opacity="1" transform="rotate(0 0 0)">
<svg width="98.6654" height="96.2099" x="0" y="0" version="1.1" preserveAspectRatio="none" viewBox="20 22 160 156.01800537109375">
  <g transform="matrix(1 0 0 -1 0 200.01800537109375)"><g><path d="M99.937 165.24c3.547 0 6.422 2.86 6.422 6.389s-2.875 6.389-6.422 6.389-6.422-2.86-6.422-6.389 2.875-6.389 6.422-6.389zm0-23.804c3.929 0 7.115 3.168 7.115 7.077s-3.185 7.077-7.115 7.077-7.115-3.168-7.115-7.077c.001-3.908 3.186-7.077 7.115-7.077zm23.739 0c3.929 0 7.115 3.168 7.115 7.077s-3.185 7.077-7.115 7.077c-3.929 0-7.115-3.168-7.115-7.077.001-3.908 3.186-7.077 7.115-7.077zm-47.771 0c3.929 0 7.115 3.168 7.115 7.077s-3.185 7.077-7.115 7.077-7.115-3.168-7.115-7.077c.001-3.908 3.186-7.077 7.115-7.077zm24.032-23.256c4.352 0 7.881 3.51 7.881 7.839 0 4.329-3.528 7.839-7.881 7.839s-7.881-3.51-7.881-7.839c.001-4.33 3.529-7.839 7.881-7.839zm23.739 0c4.352 0 7.881 3.51 7.881 7.839 0 4.329-3.528 7.839-7.881 7.839s-7.881-3.51-7.881-7.839c.001-4.33 3.529-7.839 7.881-7.839zm23.742 0c4.352 0 7.881 3.51 7.881 7.839 0 4.329-3.528 7.839-7.881 7.839s-7.881-3.51-7.881-7.839c0-4.33 3.528-7.839 7.881-7.839zm-95.326 0c4.352 0 7.881 3.51 7.881 7.839 0 4.329-3.528 7.839-7.881 7.839s-7.881-3.51-7.881-7.839c.001-4.33 3.529-7.839 7.881-7.839zm23.813 0c4.352 0 7.881 3.51 7.881 7.839 0 4.329-3.528 7.839-7.881 7.839s-7.881-3.51-7.881-7.839c0-4.33 3.529-7.839 7.881-7.839zm95.386-24.77c4.81 0 8.709 3.879 8.709 8.664s-3.899 8.664-8.709 8.664-8.709-3.879-8.709-8.664c-.001-4.785 3.898-8.664 8.709-8.664zm-23.873 0c4.81 0 8.709 3.879 8.709 8.664s-3.899 8.664-8.709 8.664-8.709-3.879-8.709-8.664c-.001-4.785 3.899-8.664 8.709-8.664zm-23.742 0c4.81 0 8.709 3.879 8.709 8.664s-3.899 8.664-8.709 8.664-8.709-3.879-8.709-8.664 3.899-8.664 8.709-8.664zm-23.739 0c4.81 0 8.709 3.879 8.709 8.664s-3.899 8.664-8.709 8.664-8.709-3.879-8.709-8.664 3.899-8.664 8.709-8.664zm-24.032 0c4.81 0 8.709 3.879 8.709 8.664s-3.899 8.664-8.709 8.664-8.709-3.879-8.709-8.664 3.899-8.664 8.709-8.664zm-47.196 0c4.81 0 8.709 3.879 8.709 8.664s-3.899 8.664-8.709 8.664S20 106.858 20 102.074c0-4.785 3.899-8.664 8.709-8.664zm23.383 0c4.81 0 8.709 3.879 8.709 8.664s-3.899 8.664-8.709 8.664-8.709-3.879-8.709-8.664 3.899-8.664 8.709-8.664zm95.326-24.319c5.488 0 9.937 4.425 9.937 9.885s-4.449 9.885-9.937 9.885-9.937-4.425-9.937-9.885 4.449-9.885 9.937-9.885zm-71.513-.292c5.488 0 9.937 4.425 9.937 9.885 0 5.459-4.449 9.885-9.937 9.885s-9.937-4.425-9.937-9.885c0-5.459 4.449-9.885 9.937-9.885zm47.771 0c5.488 0 9.937 4.425 9.937 9.885 0 5.459-4.449 9.885-9.937 9.885s-9.937-4.425-9.937-9.885c0-5.459 4.449-9.885 9.937-9.885zm-71.584 0c5.488 0 9.937 4.425 9.937 9.885 0 5.459-4.449 9.885-9.937 9.885s-9.937-4.425-9.937-9.885c0-5.459 4.449-9.885 9.937-9.885zm47.845 0c5.488 0 9.937 4.425 9.937 9.885 0 5.459-4.449 9.885-9.937 9.885S90 84.144 90 78.684c0-5.459 4.449-9.885 9.937-9.885zM75.905 46.053c5.488 0 9.937 4.425 9.937 9.885s-4.449 9.885-9.937 9.885-9.937-4.425-9.937-9.885 4.449-9.885 9.937-9.885zm47.771 0c5.488 0 9.937 4.425 9.937 9.885s-4.449 9.885-9.937 9.885-9.937-4.425-9.937-9.885 4.449-9.885 9.937-9.885zm-23.739 0c5.488 0 9.937 4.425 9.937 9.885s-4.449 9.885-9.937 9.885S90 61.398 90 55.938s4.449-9.885 9.937-9.885z" data-color="1" class="aLgOaV3zRcolors-0"></path><path d="M111.025 33.029c0 6.091-4.964 11.029-11.088 11.029-6.124 0-11.088-4.938-11.088-11.029S93.813 22 99.937 22c6.124 0 11.088 4.938 11.088 11.029z" data-color="2" class="aLgOaV3zRcolors-1"></path><path opacity=".8" d="M75.905 46.053c5.488 0 9.937 4.425 9.937 9.885s-4.449 9.885-9.937 9.885-9.937-4.425-9.937-9.885 4.449-9.885 9.937-9.885zm47.771 0c5.488 0 9.937 4.425 9.937 9.885s-4.449 9.885-9.937 9.885-9.937-4.425-9.937-9.885 4.449-9.885 9.937-9.885zm-23.739 0c5.488 0 9.937 4.425 9.937 9.885s-4.449 9.885-9.937 9.885S90 61.398 90 55.938s4.449-9.885 9.937-9.885z" data-color="2" class="aLgOaV3zRcolors-1"></path><path opacity=".65" d="M147.418 69.091c5.488 0 9.937 4.425 9.937 9.885s-4.449 9.885-9.937 9.885-9.937-4.425-9.937-9.885 4.449-9.885 9.937-9.885zm-71.513-.292c5.488 0 9.937 4.425 9.937 9.885 0 5.459-4.449 9.885-9.937 9.885s-9.937-4.425-9.937-9.885c0-5.459 4.449-9.885 9.937-9.885zm47.771 0c5.488 0 9.937 4.425 9.937 9.885 0 5.459-4.449 9.885-9.937 9.885s-9.937-4.425-9.937-9.885c0-5.459 4.449-9.885 9.937-9.885zm-71.584 0c5.488 0 9.937 4.425 9.937 9.885 0 5.459-4.449 9.885-9.937 9.885s-9.937-4.425-9.937-9.885c0-5.459 4.449-9.885 9.937-9.885zm47.845 0c5.488 0 9.937 4.425 9.937 9.885 0 5.459-4.449 9.885-9.937 9.885S90 84.144 90 78.684c0-5.459 4.449-9.885 9.937-9.885z" data-color="2" class="aLgOaV3zRcolors-1"></path><path opacity=".5" d="M171.291 93.41c4.81 0 8.709 3.879 8.709 8.664s-3.899 8.664-8.709 8.664-8.709-3.879-8.709-8.664 3.898-8.664 8.709-8.664zm-23.873 0c4.81 0 8.709 3.879 8.709 8.664s-3.899 8.664-8.709 8.664-8.709-3.879-8.709-8.664 3.899-8.664 8.709-8.664zm-23.742 0c4.81 0 8.709 3.879 8.709 8.664s-3.899 8.664-8.709 8.664-8.709-3.879-8.709-8.664 3.899-8.664 8.709-8.664zm-23.739 0c4.81 0 8.709 3.879 8.709 8.664s-3.899 8.664-8.709 8.664-8.709-3.879-8.709-8.664 3.899-8.664 8.709-8.664zm-24.032 0c4.81 0 8.709 3.879 8.709 8.664s-3.899 8.664-8.709 8.664-8.709-3.879-8.709-8.664 3.899-8.664 8.709-8.664zm-47.196 0c4.81 0 8.709 3.879 8.709 8.664s-3.899 8.664-8.709 8.664S20 106.859 20 102.074s3.899-8.664 8.709-8.664zm23.383 0c4.81 0 8.709 3.879 8.709 8.664s-3.899 8.664-8.709 8.664-8.709-3.879-8.709-8.664 3.899-8.664 8.709-8.664z" data-color="2" class="aLgOaV3zRcolors-1"></path><path opacity=".35" d="M99.937 118.18c4.352 0 7.881 3.51 7.881 7.839s-3.528 7.839-7.881 7.839-7.881-3.51-7.881-7.839 3.529-7.839 7.881-7.839zm23.739 0c4.352 0 7.881 3.51 7.881 7.839s-3.528 7.839-7.881 7.839-7.881-3.51-7.881-7.839 3.529-7.839 7.881-7.839zm23.742 0c4.352 0 7.881 3.51 7.881 7.839s-3.528 7.839-7.881 7.839-7.881-3.51-7.881-7.839 3.528-7.839 7.881-7.839zm-95.326 0c4.352 0 7.881 3.51 7.881 7.839s-3.528 7.839-7.881 7.839-7.881-3.51-7.881-7.839 3.529-7.839 7.881-7.839zm23.813 0c4.352 0 7.881 3.51 7.881 7.839s-3.528 7.839-7.881 7.839-7.881-3.51-7.881-7.839 3.529-7.839 7.881-7.839z" data-color="2" class="aLgOaV3zRcolors-1"></path><path opacity=".2" d="M99.937 141.436c3.929 0 7.115 3.168 7.115 7.077s-3.185 7.077-7.115 7.077-7.115-3.168-7.115-7.077c.001-3.908 3.186-7.077 7.115-7.077zm23.739 0c3.929 0 7.115 3.168 7.115 7.077s-3.185 7.077-7.115 7.077c-3.929 0-7.115-3.168-7.115-7.077.001-3.908 3.186-7.077 7.115-7.077zm-47.771 0c3.929 0 7.115 3.168 7.115 7.077s-3.185 7.077-7.115 7.077-7.115-3.168-7.115-7.077c.001-3.908 3.186-7.077 7.115-7.077z" data-color="2" class="aLgOaV3zRcolors-1"></path></g></g>
</svg>
</g></g></svg>